<?xml version="1.0" encoding="UTF-8"?>
<!DOCTYPE svg PUBLIC "-//W3C//DTD SVG 1.1//EN" "http://www.w3.org/Graphics/SVG/1.1/DTD/svg11.dtd">
<svg xmlns="http://www.w3.org/2000/svg" version="1.1" width="733" height="482" style="shape-rendering:geometricPrecision; text-rendering:geometricPrecision; image-rendering:optimizeQuality; fill-rule:evenodd; clip-rule:evenodd" xmlns:xlink="http://www.w3.org/1999/xlink">
<g><path style="opacity:1" fill="#f7f7f7" d="M -0.5,-0.5 C 299.5,-0.5 599.5,-0.5 899.5,-0.5C 899.5,152.833 899.5,306.167 899.5,459.5C 892.833,459.5 886.167,459.5 879.5,459.5C 879.5,452.833 879.5,446.167 879.5,439.5C 872.833,439.5 866.167,439.5 859.5,439.5C 859.5,432.833 859.5,426.167 859.5,419.5C 852.833,419.5 846.167,419.5 839.5,419.5C 839.5,412.833 839.5,406.167 839.5,399.5C 832.833,399.5 826.167,399.5 819.5,399.5C 819.5,392.833 819.5,386.167 819.5,379.5C 812.833,379.5 806.167,379.5 799.5,379.5C 799.5,372.833 799.5,366.167 799.5,359.5C 792.833,359.5 786.167,359.5 779.5,359.5C 779.5,352.833 779.5,346.167 779.5,339.5C 772.833,339.5 766.167,339.5 759.5,339.5C 759.5,332.833 759.5,326.167 759.5,319.5C 752.833,319.5 746.167,319.5 739.5,319.5C 739.5,312.833 739.5,306.167 739.5,299.5C 732.833,299.5 726.167,299.5 719.5,299.5C 719.5,292.833 719.5,286.167 719.5,279.5C 712.833,279.5 706.167,279.5 699.5,279.5C 699.5,272.833 699.5,266.167 699.5,259.5C 692.833,259.5 686.167,259.5 679.5,259.5C 679.5,252.833 679.5,246.167 679.5,239.5C 672.833,239.5 666.167,239.5 659.5,239.5C 659.5,232.833 659.5,226.167 659.5,219.5C 652.833,219.5 646.167,219.5 639.5,219.5C 639.5,212.833 639.5,206.167 639.5,199.5C 632.833,199.5 626.167,199.5 619.5,199.5C 619.5,192.833 619.5,186.167 619.5,179.5C 612.833,179.5 606.167,179.5 599.5,179.5C 599.5,172.833 599.5,166.167 599.5,159.5C 592.833,159.5 586.167,159.5 579.5,159.5C 579.5,152.833 579.5,146.167 579.5,139.5C 572.833,139.5 566.167,139.5 559.5,139.5C 559.5,132.833 559.5,126.167 559.5,119.5C 554.5,119.5 549.5,119.5 544.5,119.5C 542.404,116.738 540.738,113.738 539.5,110.5C 539.5,106.833 539.5,103.167 539.5,99.5C 539.5,92.8333 539.5,86.1667 539.5,79.5C 532.833,79.5 526.167,79.5 519.5,79.5C 519.5,72.8333 519.5,66.1667 519.5,59.5C 512.833,59.5 506.167,59.5 499.5,59.5C 499.5,52.8333 499.5,46.1667 499.5,39.5C 492.833,39.5 486.167,39.5 479.5,39.5C 479.5,32.8333 479.5,26.1667 479.5,19.5C 472.833,19.5 466.167,19.5 459.5,19.5C 459.5,26.1667 459.5,32.8333 459.5,39.5C 452.833,39.5 446.167,39.5 439.5,39.5C 439.5,32.8333 439.5,26.1667 439.5,19.5C 432.833,19.5 426.167,19.5 419.5,19.5C 419.5,26.1667 419.5,32.8333 419.5,39.5C 412.833,39.5 406.167,39.5 399.5,39.5C 399.5,46.1667 399.5,52.8333 399.5,59.5C 392.833,59.5 386.167,59.5 379.5,59.5C 379.5,66.1667 379.5,72.8333 379.5,79.5C 372.833,79.5 366.167,79.5 359.5,79.5C 359.5,86.1667 359.5,92.8333 359.5,99.5C 352.833,99.5 346.167,99.5 339.5,99.5C 339.5,106.167 339.5,112.833 339.5,119.5C 343.833,119.5 348.167,119.5 352.5,119.5C 338.981,141.865 326.481,164.865 315,188.5C 298.759,223.987 282.759,259.654 267,295.5C 262.922,303.991 258.588,312.324 254,320.5C 253.047,323.432 252.547,326.432 252.5,329.5C 250.215,337.648 248.715,345.981 248,354.5C 244.9,382.758 243.9,411.092 245,439.5C 245.255,449.597 246.255,459.597 248,469.5C 250.768,474.104 254.601,477.438 259.5,479.5C 259.5,486.167 259.5,492.833 259.5,499.5C 266.167,499.5 272.833,499.5 279.5,499.5C 279.5,506.167 279.5,512.833 279.5,519.5C 286.167,519.5 292.833,519.5 299.5,519.5C 299.5,526.167 299.5,532.833 299.5,539.5C 306.167,539.5 312.833,539.5 319.5,539.5C 319.5,544.5 319.5,549.5 319.5,554.5C 212.833,554.5 106.167,554.5 -0.5,554.5C -0.5,369.5 -0.5,184.5 -0.5,-0.5 Z"/></g>
<g><path style="opacity:1" fill="#fdfdfd" d="M 539.5,99.5 C 536.753,99.1866 534.086,99.52 531.5,100.5C 533.942,104.059 535.442,108.059 536,112.5C 538.549,126.848 541.049,141.181 543.5,155.5C 534.801,152.075 525.801,149.742 516.5,148.5C 516.66,150.199 516.494,151.866 516,153.5C 515.505,151.527 515.338,149.527 515.5,147.5C 500.932,145.145 486.265,143.812 471.5,143.5C 472.449,155.174 473.449,166.841 474.5,178.5C 459.833,178.5 445.167,178.5 430.5,178.5C 430.5,167.167 430.5,155.833 430.5,144.5C 417.014,145.019 403.681,146.686 390.5,149.5C 386.933,178.768 383.767,208.101 381,237.5C 380.768,236.263 380.268,235.263 379.5,234.5C 379.665,230.818 379.499,227.152 379,223.5C 375.629,213.909 369.796,212.075 361.5,218C 349.243,231.437 343.743,247.27 345,265.5C 346.7,274.892 351.867,277.725 360.5,274C 371.246,263.674 377.579,251.174 379.5,236.5C 379.59,238.696 379.923,240.863 380.5,243C 377.947,259.129 376.614,275.295 376.5,291.5C 382.449,292.292 388.449,292.792 394.5,293C 388.251,293.809 382.084,293.642 376,292.5C 374.768,295.3 374.101,298.3 374,301.5C 373.502,298.518 373.335,295.518 373.5,292.5C 358.943,291.801 344.61,289.801 330.5,286.5C 340.58,233.102 350.913,179.768 361.5,126.5C 366.791,112.451 371.958,98.4512 377,84.5C 367.839,95.4961 359.672,107.163 352.5,119.5C 348.167,119.5 343.833,119.5 339.5,119.5C 339.5,112.833 339.5,106.167 339.5,99.5C 346.167,99.5 352.833,99.5 359.5,99.5C 359.5,92.8333 359.5,86.1667 359.5,79.5C 366.167,79.5 372.833,79.5 379.5,79.5C 379.5,72.8333 379.5,66.1667 379.5,59.5C 386.167,59.5 392.833,59.5 399.5,59.5C 399.5,52.8333 399.5,46.1667 399.5,39.5C 406.167,39.5 412.833,39.5 419.5,39.5C 419.5,32.8333 419.5,26.1667 419.5,19.5C 426.167,19.5 432.833,19.5 439.5,19.5C 439.5,26.1667 439.5,32.8333 439.5,39.5C 446.167,39.5 452.833,39.5 459.5,39.5C 459.5,32.8333 459.5,26.1667 459.5,19.5C 466.167,19.5 472.833,19.5 479.5,19.5C 479.5,26.1667 479.5,32.8333 479.5,39.5C 486.167,39.5 492.833,39.5 499.5,39.5C 499.5,46.1667 499.5,52.8333 499.5,59.5C 506.167,59.5 512.833,59.5 519.5,59.5C 519.5,66.1667 519.5,72.8333 519.5,79.5C 526.167,79.5 532.833,79.5 539.5,79.5C 539.5,86.1667 539.5,92.8333 539.5,99.5 Z"/></g>
<g><path style="opacity:1" fill="#cccccc" d="M 361.5,126.5 C 334.342,191.787 307.842,257.454 282,323.5C 281.617,324.056 281.117,324.389 280.5,324.5C 277.228,310.322 270.394,308.655 260,319.5C 257.252,322.734 254.752,326.068 252.5,329.5C 252.547,326.432 253.047,323.432 254,320.5C 258.588,312.324 262.922,303.991 267,295.5C 282.759,259.654 298.759,223.987 315,188.5C 326.481,164.865 338.981,141.865 352.5,119.5C 359.672,107.163 367.839,95.4961 377,84.5C 371.958,98.4512 366.791,112.451 361.5,126.5 Z"/></g>
<g><path style="opacity:1" fill="#b7b7b7" d="M 438.5,88.5 C 472.297,87.1155 503.63,95.1155 532.5,112.5C 532.167,112.833 531.833,113.167 531.5,113.5C 507.327,99.9114 481.327,93.5781 453.5,94.5C 431.463,93.862 410.129,97.362 389.5,105C 383.062,107.256 376.896,110.09 371,113.5C 370.312,112.668 370.479,112.002 371.5,111.5C 392.658,100.004 414.991,92.3374 438.5,88.5 Z"/></g>
<g><path style="opacity:1" fill="#e5e5e5" d="M 539.5,99.5 C 539.5,103.167 539.5,106.833 539.5,110.5C 537.647,109.386 537.147,110.052 538,112.5C 564.775,187.669 591.609,262.669 618.5,337.5C 615.645,371.72 611.145,405.72 605,439.5C 603.812,443.613 601.979,447.28 599.5,450.5C 581.38,351.956 562.713,253.623 543.5,155.5C 541.049,141.181 538.549,126.848 536,112.5C 535.442,108.059 533.942,104.059 531.5,100.5C 534.086,99.52 536.753,99.1866 539.5,99.5 Z"/></g>
<g><path style="opacity:1" fill="#cccccc" d="M 539.5,110.5 C 540.738,113.738 542.404,116.738 544.5,119.5C 582.287,181.41 613.954,246.41 639.5,314.5C 633.731,311.497 628.231,311.831 623,315.5C 620.532,321.896 619.365,328.562 619.5,335.5C 618.662,335.842 618.328,336.508 618.5,337.5C 591.609,262.669 564.775,187.669 538,112.5C 537.147,110.052 537.647,109.386 539.5,110.5 Z"/></g>
<g><path style="opacity:1" fill="#494949" d="M 445.5,120.5 C 449.555,120.176 453.555,120.509 457.5,121.5C 454.232,122.487 450.898,122.82 447.5,122.5C 447.5,124.5 447.5,126.5 447.5,128.5C 450.85,128.335 454.183,128.502 457.5,129C 453.691,130.588 449.691,130.922 445.5,130C 444.208,126.835 444.208,123.668 445.5,120.5 Z"/></g>
<g><path style="opacity:1" fill="#454545" d="M 461.5,120.5 C 465.884,120.174 470.217,120.508 474.5,121.5C 472.333,121.833 470.167,122.167 468,122.5C 465.39,122.467 463.223,121.8 461.5,120.5 Z"/></g>
<g><path style="opacity:1" fill="#444444" d="M 485.5,123.5 C 482.754,124.487 480.421,123.653 478.5,121C 481.614,119.913 483.947,120.746 485.5,123.5 Z"/></g>
<g><path style="opacity:1" fill="#414141" d="M 485.5,123.5 C 489.812,121.679 494.145,119.846 498.5,118C 499.833,117.333 501.167,117.333 502.5,118C 497.554,119.806 492.888,122.139 488.5,125C 490.641,126.308 492.641,127.808 494.5,129.5C 491.171,130.426 488.337,129.426 486,126.5C 484.833,127.667 483.667,128.833 482.5,130C 481.056,130.781 479.723,130.614 478.5,129.5C 480.853,127.477 483.186,125.477 485.5,123.5 Z"/></g>
<g><path style="opacity:1" fill="#4d4d4d" d="M 413.5,120.5 C 418.099,120.2 422.599,120.533 427,121.5C 427.72,123.112 427.554,124.612 426.5,126C 423.183,126.498 419.85,126.665 416.5,126.5C 416.5,127.833 416.5,129.167 416.5,130.5C 415.5,130.5 414.5,130.5 413.5,130.5C 413.5,127.167 413.5,123.833 413.5,120.5 Z"/></g>
<g><path style="opacity:1" fill="#f5f5f5" d="M 416.5,122.5 C 419.247,122.187 421.914,122.52 424.5,123.5C 423.167,123.833 421.833,124.167 420.5,124.5C 418.667,124.415 417.334,123.748 416.5,122.5 Z"/></g>
<g><path style="opacity:1" fill="#454545" d="M 397.5,120.5 C 401.182,120.335 404.848,120.501 408.5,121C 408.833,121.333 409.167,121.667 409.5,122C 396.183,123.161 396.183,123.994 409.5,124.5C 409.5,126.5 409.5,128.5 409.5,130.5C 405.486,130.666 401.486,130.499 397.5,130C 397.167,129.667 396.833,129.333 396.5,129C 410.176,128.166 410.51,127.166 397.5,126C 396.248,124.172 396.248,122.339 397.5,120.5 Z"/></g>
<g><path style="opacity:1" fill="#2e2e2e" d="M 470.5,124.5 C 468.735,125.461 466.735,125.795 464.5,125.5C 464.5,126.5 464.5,127.5 464.5,128.5C 468.042,128.187 471.375,128.521 474.5,129.5C 470.5,129.5 466.5,129.5 462.5,129.5C 462.5,127.833 462.5,126.167 462.5,124.5C 465.167,124.5 467.833,124.5 470.5,124.5 Z"/></g>
<g><path style="opacity:1" fill="#454545" d="M 432.5,121.5 C 436.038,123.196 438.705,125.862 440.5,129.5C 440,129.833 439.5,130.167 439,130.5C 435.647,129.087 432.147,128.087 428.5,127.5C 430.5,126.833 432.5,126.167 434.5,125.5C 433.37,124.378 432.703,123.044 432.5,121.5 Z"/></g>
<g><path style="opacity:1" fill="#7d7d7d" d="M 470.5,124.5 C 467.833,124.5 465.167,124.5 462.5,124.5C 462.5,126.167 462.5,127.833 462.5,129.5C 466.5,129.5 470.5,129.5 474.5,129.5C 470.366,130.485 466.032,130.818 461.5,130.5C 461.5,128.167 461.5,125.833 461.5,123.5C 464.713,123.19 467.713,123.523 470.5,124.5 Z"/></g>
<g><path style="opacity:1" fill="#e5e5e5" d="M 361.5,126.5 C 350.913,179.768 340.58,233.102 330.5,286.5C 320.038,339.477 309.705,392.477 299.5,445.5C 296.9,436.759 294.733,427.759 293,418.5C 289.622,392.669 286.122,367.002 282.5,341.5C 281.833,335.833 281.167,330.167 280.5,324.5C 281.117,324.389 281.617,324.056 282,323.5C 307.842,257.454 334.342,191.787 361.5,126.5 Z"/></g>
<g><path style="opacity:1" fill="#f5f5f5" d="M 544.5,119.5 C 549.5,119.5 554.5,119.5 559.5,119.5C 559.5,126.167 559.5,132.833 559.5,139.5C 566.167,139.5 572.833,139.5 579.5,139.5C 579.5,146.167 579.5,152.833 579.5,159.5C 586.167,159.5 592.833,159.5 599.5,159.5C 599.5,166.167 599.5,172.833 599.5,179.5C 606.167,179.5 612.833,179.5 619.5,179.5C 619.5,186.167 619.5,192.833 619.5,199.5C 626.167,199.5 632.833,199.5 639.5,199.5C 639.5,206.167 639.5,212.833 639.5,219.5C 646.167,219.5 652.833,219.5 659.5,219.5C 659.5,226.167 659.5,232.833 659.5,239.5C 666.167,239.5 672.833,239.5 679.5,239.5C 679.5,246.167 679.5,252.833 679.5,259.5C 686.167,259.5 692.833,259.5 699.5,259.5C 699.5,266.167 699.5,272.833 699.5,279.5C 706.167,279.5 712.833,279.5 719.5,279.5C 719.5,286.167 719.5,292.833 719.5,299.5C 726.167,299.5 732.833,299.5 739.5,299.5C 739.5,306.167 739.5,312.833 739.5,319.5C 746.167,319.5 752.833,319.5 759.5,319.5C 759.5,326.167 759.5,332.833 759.5,339.5C 766.167,339.5 772.833,339.5 779.5,339.5C 779.5,346.167 779.5,352.833 779.5,359.5C 786.167,359.5 792.833,359.5 799.5,359.5C 799.5,366.167 799.5,372.833 799.5,379.5C 806.167,379.5 812.833,379.5 819.5,379.5C 819.5,386.167 819.5,392.833 819.5,399.5C 826.167,399.5 832.833,399.5 839.5,399.5C 839.5,406.167 839.5,412.833 839.5,419.5C 846.167,419.5 852.833,419.5 859.5,419.5C 859.5,426.167 859.5,432.833 859.5,439.5C 866.167,439.5 872.833,439.5 879.5,439.5C 879.5,446.167 879.5,452.833 879.5,459.5C 886.167,459.5 892.833,459.5 899.5,459.5C 899.5,491.167 899.5,522.833 899.5,554.5C 892.833,554.5 886.167,554.5 879.5,554.5C 879.5,549.5 879.5,544.5 879.5,539.5C 872.833,539.5 866.167,539.5 859.5,539.5C 859.5,532.833 859.5,526.167 859.5,519.5C 852.833,519.5 846.167,519.5 839.5,519.5C 839.5,512.833 839.5,506.167 839.5,499.5C 832.833,499.5 826.167,499.5 819.5,499.5C 819.5,492.833 819.5,486.167 819.5,479.5C 812.833,479.5 806.167,479.5 799.5,479.5C 799.5,472.833 799.5,466.167 799.5,459.5C 792.833,459.5 786.167,459.5 779.5,459.5C 779.5,452.833 779.5,446.167 779.5,439.5C 772.833,439.5 766.167,439.5 759.5,439.5C 759.5,432.833 759.5,426.167 759.5,419.5C 752.833,419.5 746.167,419.5 739.5,419.5C 739.5,412.833 739.5,406.167 739.5,399.5C 732.833,399.5 726.167,399.5 719.5,399.5C 719.5,392.833 719.5,386.167 719.5,379.5C 712.833,379.5 706.167,379.5 699.5,379.5C 699.5,372.833 699.5,366.167 699.5,359.5C 692.833,359.5 686.167,359.5 679.5,359.5C 679.5,352.833 679.5,346.167 679.5,339.5C 672.833,339.5 666.167,339.5 659.5,339.5C 659.5,332.833 659.5,326.167 659.5,319.5C 653.833,319.5 648.167,319.5 642.5,319.5C 641.737,317.632 640.737,315.965 639.5,314.5C 613.954,246.41 582.287,181.41 544.5,119.5 Z"/></g>
<g><path style="opacity:1" fill="#383536" d="M 379.5,234.5 C 379.5,235.167 379.5,235.833 379.5,236.5C 377.579,251.174 371.246,263.674 360.5,274C 351.867,277.725 346.7,274.892 345,265.5C 343.743,247.27 349.243,231.437 361.5,218C 369.796,212.075 375.629,213.909 379,223.5C 379.499,227.152 379.665,230.818 379.5,234.5 Z"/></g>
<g><path style="opacity:1" fill="#fefefe" d="M 543.5,155.5 C 562.713,253.623 581.38,351.956 599.5,450.5C 598.571,451.315 597.571,452.148 596.5,453C 503.51,455.101 410.51,455.768 317.5,455C 312.481,454.882 307.815,453.549 303.5,451C 301.536,449.549 300.203,447.716 299.5,445.5C 309.705,392.477 320.038,339.477 330.5,286.5C 344.61,289.801 358.943,291.801 373.5,292.5C 373.335,295.518 373.502,298.518 374,301.5C 374.101,298.3 374.768,295.3 376,292.5C 382.084,293.642 388.251,293.809 394.5,293C 388.449,292.792 382.449,292.292 376.5,291.5C 376.614,275.295 377.947,259.129 380.5,243C 379.923,240.863 379.59,238.696 379.5,236.5C 379.5,235.833 379.5,235.167 379.5,234.5C 380.268,235.263 380.768,236.263 381,237.5C 383.767,208.101 386.933,178.768 390.5,149.5C 403.681,146.686 417.014,145.019 430.5,144.5C 430.5,155.833 430.5,167.167 430.5,178.5C 416.029,177.651 406.196,183.984 401,197.5C 397.606,225.75 395.272,254.083 394,282.5C 396.341,290.841 401.507,296.674 409.5,300C 423.101,301.14 436.768,301.64 450.5,301.5C 464.552,301.632 478.552,301.132 492.5,300C 505.664,295.502 511.497,286.336 510,272.5C 507.436,246.76 504.436,221.093 501,195.5C 495.973,183.903 487.139,178.236 474.5,178.5C 473.449,166.841 472.449,155.174 471.5,143.5C 486.265,143.812 500.932,145.145 515.5,147.5C 515.338,149.527 515.505,151.527 516,153.5C 516.494,151.866 516.66,150.199 516.5,148.5C 525.801,149.742 534.801,152.075 543.5,155.5 Z"/></g>
<g><path style="opacity:1" fill="#383536" d="M 528.5,214.5 C 531.978,214.184 535.312,214.684 538.5,216C 555.112,231.819 560.279,250.653 554,272.5C 549.103,276.497 544.27,276.331 539.5,272C 526.191,257.261 521.025,240.094 524,220.5C 525.332,218.34 526.832,216.34 528.5,214.5 Z"/></g>
<g><path style="opacity:1" fill="#e4e4e4" d="M 430.5,178.5 C 445.167,178.5 459.833,178.5 474.5,178.5C 487.139,178.236 495.973,183.903 501,195.5C 504.436,221.093 507.436,246.76 510,272.5C 511.497,286.336 505.664,295.502 492.5,300C 478.552,301.132 464.552,301.632 450.5,301.5C 436.768,301.64 423.101,301.14 409.5,300C 401.507,296.674 396.341,290.841 394,282.5C 395.272,254.083 397.606,225.75 401,197.5C 406.196,183.984 416.029,177.651 430.5,178.5 Z"/></g>
<g><path style="opacity:1" fill="#6f6f6f" d="M 437.5,282.5 C 445.507,282.334 453.507,282.5 461.5,283C 464.525,283.133 467.192,284.133 469.5,286C 457.004,290.038 444.337,290.538 431.5,287.5C 431.281,286.325 431.614,285.325 432.5,284.5C 434.336,283.972 436.003,283.306 437.5,282.5 Z"/></g>
<g><path style="opacity:1" fill="#1cb1ee" d="M 485.5,233.5 C 493.021,233.39 495.021,236.557 491.5,243C 483.424,243.805 481.424,240.638 485.5,233.5 Z"/></g>
<g><path style="opacity:1" fill="#383536" d="M 446.5,206.5 C 455.013,206.006 461.513,209.339 466,216.5C 472.61,229.817 473.277,243.483 468,257.5C 462.535,270.165 453.702,273.665 441.5,268C 430.529,256.17 427.029,242.337 431,226.5C 433.421,217.594 438.587,210.927 446.5,206.5 Z"/></g>
<g><path style="opacity:1" fill="#020202" d="M 280.5,324.5 C 281.167,330.167 281.833,335.833 282.5,341.5C 271.22,372.529 269.053,404.196 276,436.5C 280.692,457.196 293.525,468.696 314.5,471C 345.452,474.439 376.452,477.439 407.5,480C 469.673,484.477 531.34,480.811 592.5,469C 600.637,466.732 608.637,464.066 616.5,461C 622.272,458.894 626.438,455.061 629,449.5C 634.851,418.144 634.851,386.81 629,355.5C 627.137,348.112 623.971,341.445 619.5,335.5C 619.365,328.562 620.532,321.896 623,315.5C 628.231,311.831 633.731,311.497 639.5,314.5C 640.737,315.965 641.737,317.632 642.5,319.5C 644.424,324.773 646.258,330.106 648,335.5C 649.941,350.126 651.441,364.793 652.5,379.5C 654.777,402.82 654.944,426.153 653,449.5C 652.058,457.604 649.725,465.271 646,472.5C 633.024,482.39 618.524,489.223 602.5,493C 497.645,519.418 392.978,518.751 288.5,491C 278.368,488.236 268.701,484.403 259.5,479.5C 254.601,477.438 250.768,474.104 248,469.5C 246.255,459.597 245.255,449.597 245,439.5C 243.9,411.092 244.9,382.758 248,354.5C 248.715,345.981 250.215,337.648 252.5,329.5C 254.752,326.068 257.252,322.734 260,319.5C 270.394,308.655 277.228,310.322 280.5,324.5 Z"/></g>
<g><path style="opacity:1" fill="#f9f9f9" d="M 642.5,319.5 C 648.167,319.5 653.833,319.5 659.5,319.5C 659.5,326.167 659.5,332.833 659.5,339.5C 666.167,339.5 672.833,339.5 679.5,339.5C 679.5,346.167 679.5,352.833 679.5,359.5C 686.167,359.5 692.833,359.5 699.5,359.5C 699.5,366.167 699.5,372.833 699.5,379.5C 706.167,379.5 712.833,379.5 719.5,379.5C 719.5,386.167 719.5,392.833 719.5,399.5C 726.167,399.5 732.833,399.5 739.5,399.5C 739.5,406.167 739.5,412.833 739.5,419.5C 746.167,419.5 752.833,419.5 759.5,419.5C 759.5,426.167 759.5,432.833 759.5,439.5C 766.167,439.5 772.833,439.5 779.5,439.5C 779.5,446.167 779.5,452.833 779.5,459.5C 786.167,459.5 792.833,459.5 799.5,459.5C 799.5,466.167 799.5,472.833 799.5,479.5C 806.167,479.5 812.833,479.5 819.5,479.5C 819.5,486.167 819.5,492.833 819.5,499.5C 826.167,499.5 832.833,499.5 839.5,499.5C 839.5,506.167 839.5,512.833 839.5,519.5C 846.167,519.5 852.833,519.5 859.5,519.5C 859.5,526.167 859.5,532.833 859.5,539.5C 866.167,539.5 872.833,539.5 879.5,539.5C 879.5,544.5 879.5,549.5 879.5,554.5C 859.5,554.5 839.5,554.5 819.5,554.5C 819.5,549.5 819.5,544.5 819.5,539.5C 812.833,539.5 806.167,539.5 799.5,539.5C 799.5,532.833 799.5,526.167 799.5,519.5C 792.833,519.5 786.167,519.5 779.5,519.5C 779.5,512.833 779.5,506.167 779.5,499.5C 772.833,499.5 766.167,499.5 759.5,499.5C 759.5,492.833 759.5,486.167 759.5,479.5C 752.833,479.5 746.167,479.5 739.5,479.5C 739.5,472.833 739.5,466.167 739.5,459.5C 732.833,459.5 726.167,459.5 719.5,459.5C 719.5,452.833 719.5,446.167 719.5,439.5C 712.833,439.5 706.167,439.5 699.5,439.5C 699.5,432.833 699.5,426.167 699.5,419.5C 692.833,419.5 686.167,419.5 679.5,419.5C 679.5,412.833 679.5,406.167 679.5,399.5C 672.833,399.5 666.167,399.5 659.5,399.5C 659.5,392.833 659.5,386.167 659.5,379.5C 657.167,379.5 654.833,379.5 652.5,379.5C 651.441,364.793 649.941,350.126 648,335.5C 646.258,330.106 644.424,324.773 642.5,319.5 Z"/></g>
<g><path style="opacity:1" fill="#333333" d="M 619.5,335.5 C 623.971,341.445 627.137,348.112 629,355.5C 634.851,386.81 634.851,418.144 629,449.5C 626.438,455.061 622.272,458.894 616.5,461C 608.637,464.066 600.637,466.732 592.5,469C 531.34,480.811 469.673,484.477 407.5,480C 376.452,477.439 345.452,474.439 314.5,471C 293.525,468.696 280.692,457.196 276,436.5C 269.053,404.196 271.22,372.529 282.5,341.5C 286.122,367.002 289.622,392.669 293,418.5C 294.733,427.759 296.9,436.759 299.5,445.5C 300.203,447.716 301.536,449.549 303.5,451C 307.815,453.549 312.481,454.882 317.5,455C 410.51,455.768 503.51,455.101 596.5,453C 597.571,452.148 598.571,451.315 599.5,450.5C 601.979,447.28 603.812,443.613 605,439.5C 611.145,405.72 615.645,371.72 618.5,337.5C 618.328,336.508 618.662,335.842 619.5,335.5 Z"/></g>
<g><path style="opacity:1" fill="#505050" d="M 591.5,345.5 C 593.722,345.178 595.556,345.845 597,347.5C 601.959,356.506 601.626,365.173 596,373.5C 592.164,371.387 590.164,368.053 590,363.5C 589.036,357.324 589.536,351.324 591.5,345.5 Z"/></g>
<g><path style="opacity:1" fill="#505050" d="M 301.5,347.5 C 303.144,347.286 304.644,347.62 306,348.5C 309.219,356.125 309.219,363.791 306,371.5C 302.604,377.137 299.937,376.804 298,370.5C 296.547,362.326 297.714,354.66 301.5,347.5 Z"/></g>
<g><path style="opacity:1" fill="#505050" d="M 552.5,359.5 C 556.719,358.979 560.386,360.146 563.5,363C 566.333,365.833 569.167,368.667 572,371.5C 573.707,373.909 574.54,376.575 574.5,379.5C 564.026,378.5 556.526,373.167 552,363.5C 551.421,362.072 551.588,360.738 552.5,359.5 Z"/></g>
<g><path style="opacity:1" fill="#4f4f4f" d="M 339.5,361.5 C 341.467,361.261 343.301,361.594 345,362.5C 345.552,365.419 344.885,368.086 343,370.5C 338.569,377.29 332.402,381.123 324.5,382C 323.058,378.872 323.558,376.038 326,373.5C 330.048,368.949 334.548,364.949 339.5,361.5 Z"/></g>
<g><path style="opacity:1" fill="#515151" d="M 577.5,386.5 C 581.912,387.744 583.579,390.744 582.5,395.5C 582.462,399.985 581.629,404.319 580,408.5C 577.533,413.669 575.2,413.669 573,408.5C 571.665,400.518 573.165,393.185 577.5,386.5 Z"/></g>
<g><path style="opacity:1" fill="#5e5e5e" d="M 533.5,403.5 C 533.5,398.5 533.5,393.5 533.5,388.5C 532.5,388.5 531.5,388.5 530.5,388.5C 530.5,393.5 530.5,398.5 530.5,403.5C 529.512,398.36 529.179,393.026 529.5,387.5C 531.167,387.5 532.833,387.5 534.5,387.5C 534.821,393.026 534.488,398.36 533.5,403.5 Z"/></g>
<g><path style="opacity:1" fill="#45d2ff" d="M 540.5,388.5 C 546.488,388.664 547.821,391.164 544.5,396C 538.398,396.223 537.064,393.723 540.5,388.5 Z"/></g>
<g><path style="opacity:1" fill="#525252" d="M 316.5,389.5 C 318.144,389.286 319.644,389.62 321,390.5C 324.31,397.129 325.31,404.129 324,411.5C 322.522,414.993 320.522,415.326 318,412.5C 314.178,404.974 313.678,397.307 316.5,389.5 Z"/></g>
<g><path style="opacity:1" fill="#131313" d="M 533.5,403.5 C 532.5,403.5 531.5,403.5 530.5,403.5C 530.5,398.5 530.5,393.5 530.5,388.5C 531.5,388.5 532.5,388.5 533.5,388.5C 533.5,393.5 533.5,398.5 533.5,403.5 Z"/></g>
<g><path style="opacity:1" fill="#f5f5f5" d="M 652.5,379.5 C 654.833,379.5 657.167,379.5 659.5,379.5C 659.5,386.167 659.5,392.833 659.5,399.5C 666.167,399.5 672.833,399.5 679.5,399.5C 679.5,406.167 679.5,412.833 679.5,419.5C 686.167,419.5 692.833,419.5 699.5,419.5C 699.5,426.167 699.5,432.833 699.5,439.5C 706.167,439.5 712.833,439.5 719.5,439.5C 719.5,446.167 719.5,452.833 719.5,459.5C 726.167,459.5 732.833,459.5 739.5,459.5C 739.5,466.167 739.5,472.833 739.5,479.5C 746.167,479.5 752.833,479.5 759.5,479.5C 759.5,486.167 759.5,492.833 759.5,499.5C 766.167,499.5 772.833,499.5 779.5,499.5C 779.5,506.167 779.5,512.833 779.5,519.5C 786.167,519.5 792.833,519.5 799.5,519.5C 799.5,526.167 799.5,532.833 799.5,539.5C 806.167,539.5 812.833,539.5 819.5,539.5C 819.5,544.5 819.5,549.5 819.5,554.5C 652.833,554.5 486.167,554.5 319.5,554.5C 319.5,549.5 319.5,544.5 319.5,539.5C 312.833,539.5 306.167,539.5 299.5,539.5C 299.5,532.833 299.5,526.167 299.5,519.5C 292.833,519.5 286.167,519.5 279.5,519.5C 279.5,512.833 279.5,506.167 279.5,499.5C 272.833,499.5 266.167,499.5 259.5,499.5C 259.5,492.833 259.5,486.167 259.5,479.5C 268.701,484.403 278.368,488.236 288.5,491C 392.978,518.751 497.645,519.418 602.5,493C 618.524,489.223 633.024,482.39 646,472.5C 649.725,465.271 652.058,457.604 653,449.5C 654.944,426.153 654.777,402.82 652.5,379.5 Z"/></g>
<g><path style="opacity:1" fill="#46ff3d" d="M 541.5,401.5 C 545.06,400.891 547.06,402.391 547.5,406C 545.687,409.911 543.187,410.411 540,407.5C 539.252,405.16 539.752,403.16 541.5,401.5 Z"/></g>
<g><path style="opacity:1" fill="#1d1d1d" d="M 531.5,408.5 C 532.725,409.152 533.392,410.319 533.5,412C 533.167,413.167 532.833,414.333 532.5,415.5C 531.526,413.257 531.192,410.924 531.5,408.5 Z"/></g>
<g><path style="opacity:1" fill="#131313" d="M 530.5,420.5 C 531.833,420.5 533.167,420.5 534.5,420.5C 534.5,428.167 534.5,435.833 534.5,443.5C 533.167,443.5 531.833,443.5 530.5,443.5C 530.5,435.833 530.5,428.167 530.5,420.5 Z"/></g>
<g><path style="opacity:1" fill="#2aae66" d="M 542.5,420.5 C 548.158,419.679 549.825,421.846 547.5,427C 541.741,428.139 540.074,425.972 542.5,420.5 Z"/></g>
<g><path style="opacity:1" fill="#ef4545" d="M 561.5,421.5 C 564.084,422.048 565.084,423.715 564.5,426.5C 560.716,426.475 559.716,424.808 561.5,421.5 Z"/></g>
<g><path style="opacity:1" fill="#ee3f40" d="M 563.5,431.5 C 564.5,431.5 565.5,431.5 566.5,431.5C 566.884,433.665 566.217,435.332 564.5,436.5C 562.296,435.218 561.962,433.551 563.5,431.5 Z"/></g>
<g><path style="opacity:1" fill="#ff6e1b" d="M 544.5,433.5 C 547.352,433.352 549.019,434.686 549.5,437.5C 547.167,442.833 544.833,442.833 542.5,437.5C 542.752,435.927 543.418,434.594 544.5,433.5 Z"/></g>
<g><path style="opacity:1" fill="#202020" d="M 552.5,441.5 C 556.167,441.5 559.833,441.5 563.5,441.5C 563.5,442.5 563.5,443.5 563.5,444.5C 559.833,444.5 556.167,444.5 552.5,444.5C 552.5,443.5 552.5,442.5 552.5,441.5 Z"/></g>
</svg>
