<?xml version="1.0" encoding="utf-8"?>
<!-- Generator: Adobe Illustrator 23.1.0, SVG Export Plug-In . SVG Version: 6.00 Build 0)  -->
<svg version="1.1" id="Layer_1" xmlns="http://www.w3.org/2000/svg" xmlns:xlink="http://www.w3.org/1999/xlink" x="0px" y="0px"
	 viewBox="0 0 239.3 60" style="enable-background:new 0 0 239.3 60;" xml:space="preserve" width="150px" height="110px">
<style type="text/css">
	.st0{fill:#0149D5;}
	.st1{fill-rule:evenodd;clip-rule:evenodd;fill:#86CE32;}
	.st2{fill-rule:evenodd;clip-rule:evenodd;fill:#0061A3;}
	.st3{fill:#23211C;}
</style>
<g>
	<path class="st0" d="M172.5,41c0.4-0.5,0.7-0.7,1.1-0.7c0.2,0,0.4,0.1,0.6,0.2c0.2,0.1,0.3,0.2,0.3,0.4c0,0.3-0.1,0.5-0.3,0.8
		c-0.3,0.4-0.3,0.6-0.3,0.6c0,0.1,0.1,0.2,0.2,0.4l0,0c0.2,0.1,0.3,0.1,0.5,0.1c0.4,0,0.7-0.2,1-0.5c0.2-0.3,0.3-0.7,0.3-1.1
		c0-1.1-0.7-1.7-2.2-1.7c-0.9,0-1.7,0.2-2.3,0.7c-0.3,0.2-0.6,0.4-0.9,0.8c-0.3,0.4-0.5,0.7-0.7,1s-0.4,0.7-0.6,1.2
		c-0.1,0.2-0.2,0.4-0.3,0.6s-0.2,0.4-0.2,0.6c-0.1,0.3-0.3,0.8-0.5,1.3c-0.1,0.3-0.2,0.5-0.2,0.7c-0.1,0.2-0.1,0.3-0.1,0.4l-1.8-0.1
		h-0.2c-0.1,0-0.2,0-0.4,0.1c-0.1,0.1-0.1,0.1-0.1,0.2s0,0.1-0.1,0.2c-0.3,1.1-0.8,2.2-1.5,3.3c-0.1,0.2-0.1,0.4-0.1,0.6
		s0,0.4,0.2,0.4c0.3,0,1.6-2.6,1.8-2.9c0.2-0.4,0.7-0.7,1.5-0.8h0.5c-2.2,5.5-3.6,8.5-4.6,10.1c-0.3,0.4-0.7,0.8-1,1
		c-0.4,0.3-0.7,0.4-0.9,0.4s-0.3-0.1-0.4-0.2c-0.1-0.2-0.1-0.3-0.1-0.5c0,0,0-0.2,0.1-0.3c0-0.1,0.1-0.2,0.1-0.3s0.1-0.2,0.1-0.3
		c0.1-0.2,0.1-0.3,0.1-0.3c0-0.1-0.1-0.2-0.2-0.4c-0.1-0.1-0.3-0.2-0.6-0.2s-0.5,0.1-0.7,0.4c-0.2,0.3-0.3,0.6-0.3,1
		s0.2,0.8,0.5,1.2c0.2,0.2,0.7,0.5,1.6,0.5c1,0,2.1-0.5,3-1.5c0.5-0.5,0.8-1,1.2-1.6c0.3-0.4,0.6-0.9,0.9-1.5
		c0.1-0.2,0.3-0.5,0.4-0.8c0.4-0.8,0.9-2.1,1.6-3.9c0.1-0.4,0.3-0.7,0.4-1.1l0.6-1.7c1,0,2-0.1,2.8-0.2c0.6-0.2,1-0.5,1.2-0.9
		l0.1-0.3l-0.2,0.2c-0.3,0.2-1.5,0.3-3.6,0.3l0,0c0-0.1,0.1-0.1,0.1-0.2v-0.1c0.5-1.4,1-2.8,1.6-4C171.7,42,172.1,41.4,172.5,41z"/>
	<path class="st0" d="M177.5,46.9c-1.2,0-2.1,0.4-2.9,1.1c-0.7,0.7-1,1.7-1,3.1c0,1.3,0.4,2.4,1,3.1c0.8,0.8,1.7,1.1,2.9,1.1
		s2.1-0.4,2.9-1.1c0.7-0.7,1-1.7,1-3.1c0-1.3-0.4-2.4-1-3.1C179.6,47.3,178.7,46.9,177.5,46.9z M176,48.4c0.4-0.7,1-1.1,1.5-1.1
		s1.2,0.4,1.5,1.1c0.4,0.7,0.6,1.5,0.6,2.6s-0.2,2-0.6,2.7c-0.4,0.7-0.9,1.1-1.5,1.1s-1.1-0.3-1.5-1.1c-0.4-0.7-0.6-1.6-0.6-2.7
		C175.4,50,175.6,49.1,176,48.4z"/>
	<path class="st0" d="M188.7,46.8c-1,0-1.8,0.5-2.5,1.5V47h-3v0.5h0.2c0.8,0.1,1,0.2,1.1,0.3c0.1,0.2,0.2,0.5,0.2,1.2v4.1
		c0,0.8-0.1,1.1-0.2,1.1c-0.2,0.2-0.5,0.3-1,0.3h-0.2v0.6h4.5v-0.7h-0.4c-0.6,0-1-0.1-1-0.2c-0.1-0.1-0.2-0.4-0.2-1.1v-3.9
		c0.5-0.7,1-1,1.9-1c0.2,0,0.2,0,0.2,0c0,0.1,0,0.3,0.1,0.8v0.2h1V47l0,0C189.1,46.8,188.8,46.8,188.7,46.8z"/>
	<path class="st0" d="M195,46.8c-1.2,0-2.1,0.4-2.9,1.1c-0.7,0.8-1,1.8-1,3s0.4,2.2,1.1,3c0.7,0.8,1.7,1.2,2.9,1.2
		c0.8,0,1.5-0.2,2.2-0.5l0,0v-0.5l-0.1,0.1c-0.4,0.3-1.1,0.4-1.9,0.4c-0.7,0-1.4-0.3-1.9-1c-0.5-0.6-0.7-1.4-0.7-2.6
		c0-1.1,0.2-2,0.6-2.6c0.4-0.6,0.9-1,1.6-1c0.9,0,1.3,0.5,1.3,1.5v0.2h1.1v-1.9h-0.1C196.4,46.9,195.5,46.8,195,46.8z"/>
	<path class="st0" d="M206.3,50.6c0-1.2-0.3-2.1-0.8-2.7c-0.5-0.7-1.3-1-2.3-1c-1.1,0-1.9,0.3-2.6,1.1c-0.7,0.7-1,1.7-1,3
		s0.4,2.3,1.1,3.2c0.7,0.8,1.7,1.2,2.9,1.2c0.9,0,1.8-0.2,2.5-0.5l0,0v-1L206,54c-0.6,0.3-1.4,0.5-2.3,0.5c-0.8,0-1.5-0.3-1.8-0.9
		c-0.4-0.6-0.6-1.5-0.6-2.7h4.9v-0.3C206.2,50.6,206.3,50.6,206.3,50.6z M201.8,48.2c0.3-0.5,0.8-0.8,1.2-0.8c0.6,0,0.9,0.2,1.1,0.6
		c0.3,0.4,0.4,1,0.4,2v0.2h-3.1C201.4,49.5,201.6,48.8,201.8,48.2z"/>
</g>
<g>
	<path class="st1" d="M164.1,8.8c-1,1-3.7,4.2-7.6,5.4h-0.2c3.7-1,8.3-2,13.7-2.4c0,0,0.2,0,0.5-0.2c0,0,0.5-1.7-0.2-2.4l0,0
		C170.1,8.9,167.7,8.6,164.1,8.8L164.1,8.8z M170.2,9L170.2,9L170.2,9L170.2,9z M162.1,40.6c-0.6,0.3-2.4,1.1-2.8,1h-0.1
		c0.6-0.9,2.4-1,2.4-1s0.5-0.1,0.7-0.1L162.1,40.6z M162.7,37.8c-0.7,0.7-1.3,1.3-1.6,1.8c0,0,0.4,0.1,0.4-0.1
		c0.2-0.1,1-0.8,1.5-1.3c-0.2,0.2-0.2,0.1-0.1-0.2C163,37.9,163,37.8,162.7,37.8L162.7,37.8z M159,33.5c-1,0.5-3.2,1.2-4.4,1.2h-0.2
		c-0.2,0-0.5-0.2,0-0.7C154.5,34,156.7,34,159,33.5L159,33.5z M154.5,34L154.5,34c0,0,0,0,0-0.2C154.5,34,154.5,34,154.5,34
		L154.5,34z M162.6,33c-0.5,1-2,2.7-5.6,4.9c0,0,0,0,0.2,0c0,0,0.2,0,0.2-0.2c0.5,0,1-0.5,2.2-1l0,0c1.2-0.7,4.2-2.4,4.9-4.4
		l-0.2,0.2C164.1,32.7,163.4,32.7,162.6,33L162.6,33z M166.6,27.2c-0.7,0.7-2.3,2.5-5.2,4.3c0.7-0.2,1.7-0.2,2.5,0l0,0
		c0.7-0.5,2.7-1.9,4-3.4c-0.2,0.2-0.8,0.9-0.5-0.3c0.1-0.3-0.2-0.6-0.7-0.6C166.7,27.2,166.6,27.2,166.6,27.2z M159.2,28.1
		c-0.5,0.5-5.7,3.4-7.1,3.9c-0.2,0-0.5,0-0.7,0l0,0l0,0C152.8,30.3,156.7,28.8,159.2,28.1L159.2,28.1z M169.2,16.6
		c-1.2,0.7-5.8,4-9.8,6.8c-0.1,0,0,0.1,0.1,0.1c2.4-0.9,5.7-1.5,10-2l0,0c0,0,1.3-0.2,2.4-0.2l0,0c1.5-0.7,4.2-2.4,3.9-4.4
		c0,0,0-0.7-1.7-0.7C174.1,16.1,172.2,16.1,169.2,16.6L169.2,16.6z"/>
	<path class="st2" d="M158.6,41.3c0-0.2-1-1.3,4.7-2.2c1.5-0.2-0.8,2.4-0.6,1.5c0.2-0.2-1.1,0-1.1,0s-2,0.2-2.4,1
		C159.1,41.5,158.9,41.5,158.6,41.3L158.6,41.3z M144.2,14.4c0,0,1.5-8.6,16.7-7.8c0,0,6.4,0.5,9.3,2.4
		C170.1,9,156.6,6.6,144.2,14.4L144.2,14.4z M146.1,18.8c0,0,8.3-5.9,23.8-7.1c0,0,3.4-0.7,4.9,1.7c0,0,1,1,1,3.4c0,0,0-0.7-1.7-0.7
		c0,0-16.4,0-27.7,9C147.1,23,141.7,21.5,146.1,18.8L146.1,18.8z M149.8,30.5c0,0-0.7-2.4,1.7-3.4c2.4-0.7,4.9-4.2,17.9-5.6
		c0,0,6.4-1.5,2.7,2.4s-4.2,4.4-4.2,4.4s-1,1-0.7-0.5c0.5-1.2-5.4-0.2-5.4-0.2s-8.3,1.5-10.5,4.4C151.3,32,150.3,31.8,149.8,30.5
		L149.8,30.5z M154.2,34c0,0,4.7-3.2,9.8-2.4c0,0,1.5,0,0.2,1C163,33.5,154.2,34,154.2,34L154.2,34z M156.9,38.9
		c0,0-0.2-0.7,0.5-1.2c0.7-0.2,1.5-1,5.9-1.5c2.2-0.2-1,3.2-0.5,1.7c0-0.2-2,0-2,0s-2.7,0.5-3.4,1.5
		C157.4,39.3,156.9,39.3,156.9,38.9L156.9,38.9z"/>
	<path class="st2" d="M177.5,10.8c4.2,9.3-1.2,21-12,23.2c0.5,0,0.7-0.2,1-0.2c9.1-3.4,13.5-13.2,9.8-21.7
		c-3.9-8.3-14.2-12.5-23.3-8.8c-5.1,2-8.6,5.6-10.3,10.3c1.5-3.9,3.9-9.3,12-12.2C162.5-2,173.6,1.7,177.5,10.8L177.5,10.8z"/>
</g>
<g>
	<path class="st3" d="M16.2,25.3c1.6-0.7,3-2.3,3-4.8c0-3.4-2.5-5.6-6.2-5.6H2.4v21.5h10.9c3.9,0,6.4-2.3,6.4-6
		C19.6,28.2,18.2,26,16.2,25.3z M12.3,23.6H6.6v-4.9h5.7c1.6,0,2.7,1,2.7,2.5C15,22.6,13.9,23.6,12.3,23.6z M6.6,27.3h5.8
		c2,0,2.9,1.3,2.9,2.7c0,1.7-1.1,2.7-2.9,2.7H6.6V27.3z"/>
	<path class="st3" d="M41.4,21.8c0-4.1-2.9-6.8-7.1-6.8h-9.5v21.5H29v-7.8h3.3l4.6,7.8h4.9l-5.3-8.4C38.8,27.6,41.4,25.7,41.4,21.8z
		 M28.9,18.7h4.8c2,0,3.3,1.2,3.3,3.1s-1.3,3.1-3.3,3.1h-4.8C28.9,24.9,28.9,18.7,28.9,18.7z"/>
	<path class="st3" d="M57.6,14.9h-4.9l-8.4,21.5H49l1.5-4.1h9.3l1.5,4.1H66l-8.4-21.3V14.9z M58.5,28.6h-6.8l3.4-9.1L58.5,28.6z"/>
	<rect x="69.5" y="14.9" class="st3" width="4.2" height="21.5"/>
	<polygon class="st3" points="94.1,29 83.7,14.9 79.6,14.9 79.6,36.4 83.8,36.4 83.8,21.9 94.3,36.3 94.4,36.4 98.3,36.4 98.3,14.9 
		94.1,14.9 	"/>
	<path class="st3" d="M112.2,23.3c-2.4-0.6-4.4-1.1-4.4-2.6c0-1.4,1.3-2.4,3.3-2.4c2.3,0,4.4,0.8,5.9,2.4l0.2,0.2l2.4-3.1l-0.2-0.2
		c-2-2-4.8-3-8-3c-4.7,0-7.9,2.6-7.9,6.4c0,4.6,4.2,5.7,7.6,6.5c2.5,0.6,4.7,1.2,4.7,2.9c0,1.3-1,2.6-3.9,2.6c-2.4,0-4.8-1-6.5-2.8
		l-0.2-0.2l-2.4,3.3l0.1,0.2c2.2,2.2,5.2,3.4,8.7,3.4c6.2,0,8.4-3.5,8.4-6.8C120,25.3,115.7,24.2,112.2,23.3z"/>
	<polygon class="st3" points="123.1,18.7 129.5,18.7 129.5,36.4 133.6,36.4 133.6,18.7 140,18.7 140,14.9 123.1,14.9 	"/>
</g>
<g>
	<path class="st3" d="M198.6,21.8c0-4.1-2.9-6.8-7.1-6.8H182v21.5h4.2v-7.8h3.3l4.6,7.8h4.9l-5.2-8.3
		C196,27.6,198.6,25.7,198.6,21.8z M186.1,18.7h4.8c2,0,3.3,1.2,3.3,3.1s-1.3,3.1-3.3,3.1h-4.8V18.7z"/>
	<polygon class="st3" points="220.4,14.9 214.8,28.9 209.3,14.9 203.7,14.9 203.7,36.4 207.8,36.4 207.8,21.3 213.9,36.4 
		215.8,36.4 221.8,21.3 221.8,36.4 226,36.4 226,14.9 	"/>
</g>
<g>
	<g>
		<g>
			<path class="st3" d="M233.2,20.5c-2.6,0-4.6-2.1-4.6-4.6c0-2.6,2.1-4.6,4.6-4.6c2.5,0,4.6,2.1,4.6,4.6
				C237.8,18.5,235.8,20.5,233.2,20.5z M233.2,12.2c-2,0-3.7,1.7-3.7,3.7s1.7,3.7,3.7,3.7s3.7-1.7,3.7-3.7S235.4,12.2,233.2,12.2z"
				/>
		</g>
	</g>
	<g>
		<path class="st3" d="M234.1,18.3l-0.9-1.7h-0.8v1.7h-1v-4.8h2.3c1,0,1.6,0.7,1.6,1.6c0,0.8-0.5,1.3-1.1,1.4l1.1,1.8H234.1z
			 M234.2,15.1c0-0.4-0.3-0.6-0.7-0.6h-1.1v1.3h1.1C233.9,15.7,234.2,15.5,234.2,15.1z"/>
	</g>
</g>
</svg>
